<svg width="69" height="62" viewBox="0 0 69 62" fill="none" xmlns="http://www.w3.org/2000/svg">
    <g id="Group 3">
        <rect id="Rectangle 49" x="8" y="13" width="41" height="41" rx="20.5" fill="#E8FF7C" />
        <g id="Group 2">
            <path id="Union"
                d="M50.5072 43.1122C50.5072 43.1122 50.7325 42.9851 50.7914 42.9557L51.1448 42.7788V37.3838L43.1128 36.0024C43.5324 35.3861 44.1909 34.806 45.1938 34.4472C47.894 33.4812 52.3073 34.4765 53.2655 35.4133C53.722 35.8596 54.0467 36.4854 54.3495 37.0689C54.6822 37.7101 54.9885 38.3003 55.4141 38.5455C56.0645 38.9202 57.2142 38.9553 58.0272 38.5455L67.6571 32.925L68.0783 32.6373L68.1372 28.0088L59.0146 28.0364C58.5034 27.7561 58.1493 27.5662 58.0272 27.5094C57.6551 27.3363 55.7024 27.3623 54.6458 28.0364H42.6723C42.8961 27.4202 43.3225 26.8835 43.684 26.5434C44.555 25.7237 46.0068 25.4017 47.8069 25.3432C49.51 25.2878 50.0176 24.7346 50.4362 24.2785L50.4366 24.2781C50.4604 24.2522 50.4838 24.2266 50.5072 24.2015C50.7513 23.9389 50.9092 23.7341 50.9387 23.4687V23.2919L51.2332 18.6461H42.7691L41.0128 17.6443L38.9686 18.832L36.9188 18.9323L28.9923 21.7718L27.047 21.0212C26.6305 20.2204 25.8791 19.2341 24.4338 18.6981C23.165 18.2276 21.6506 18.194 20.29 18.4137L15.8685 16.7075V21.5218C15.7236 22.3537 16.024 23.1721 16.5654 23.8502C17.2043 24.6506 19.496 25.0474 21.262 25.3532C22.1085 25.4998 22.8343 25.6255 23.1992 25.7646L23.4467 25.8994L14.0974 28.0364V32.925L17.1805 34.6372L19.4438 36.0107L15.8685 39.0432V43.8875C15.7599 44.6799 16.0974 45.638 17.5526 46.6835C20.0786 48.4985 24.2991 48.2519 26.6115 46.2737C27.0737 45.8783 27.3941 45.2716 27.7062 44.6805C28.041 44.0464 28.3663 43.4303 28.8471 43.1122C29.5904 42.6204 30.7925 42.7024 31.6926 43.1122L41.0128 48.557L50.5072 43.1122Z"
                fill="#170D1E" />
            <path id="Vector 1"
                d="M51.027 17.9733L41.3971 12.5308L31.9438 17.9733C31.3548 18.238 30.7953 18.238 30.0885 18.238C29.1378 18.238 27.9681 17.4437 27.762 17.1495C27.5558 16.8553 27.1435 14.5312 24.5814 13.5898C22.0193 12.6484 18.4697 13.4473 17.1307 14.5312C15.4226 15.9139 15.6288 17.5614 16.6006 18.7676C17.5724 19.9737 22.3138 20.2679 23.374 20.7092C24.2221 21.0622 24.3753 22.2096 24.1397 22.4449L14.0974 28.0051L23.7568 33.5358C23.9728 33.5358 24.2796 34.036 24.1397 34.5949C23.9276 35.4422 21.5579 35.8305 20.3996 35.9188C19.2413 36.007 17.166 36.7425 16.6006 37.4486C15.8938 38.3311 15.0398 39.8903 17.6019 41.7143C20.164 43.5383 24.4447 43.2904 26.7901 41.3024C27.762 40.4787 28.1154 38.743 29.0577 38.1252C29.8116 37.631 31.0309 37.7133 31.9438 38.1252L41.3971 43.5971L51.027 38.1252C51.1056 37.8996 51.2155 37.3427 51.027 36.919C50.7914 36.3895 50.3497 36.0364 49.6429 35.9188C48.9361 35.8011 46.8452 35.7128 45.6378 35.4775C44.4304 35.2421 43.3702 34.5949 42.9284 33.5358C42.6927 32.9708 42.899 30.388 45.6378 29.4172C48.3766 28.4464 52.8529 29.4466 53.8247 30.388C54.7966 31.3294 55.1794 33.0651 56.004 33.5358C56.6637 33.9124 57.8299 33.9477 58.6544 33.5358L68.1372 27.9757C65.1824 26.3184 59.2602 22.7242 58.6544 22.4449C58.2716 22.2684 56.2396 22.2978 55.1794 23.0039C54.1192 23.7099 54.6699 25.1327 53.2568 26.0143C51.8208 26.9102 46.3508 27.0312 44.1064 25.7398C41.8486 24.4408 43.2229 22.2978 44.1064 21.4741C44.9899 20.6504 46.4624 20.3268 48.2882 20.2679C50.1141 20.2091 50.5853 19.5913 51.027 19.1206C51.3804 18.744 51.1743 18.1988 51.027 17.9733Z"
                fill="white" />
            <path id="Vector 1 (Stroke)" fill-rule="evenodd" clip-rule="evenodd"
                d="M31.9438 38.1252L41.3971 43.5971L51.027 38.1252C51.1056 37.8996 51.2155 37.3426 51.027 36.919C50.7914 36.3895 50.3497 36.0364 49.6429 35.9188C49.362 35.872 48.8626 35.8299 48.2868 35.7813C47.4138 35.7077 46.3654 35.6193 45.6378 35.4775C44.4304 35.2421 43.3702 34.5949 42.9284 33.5358C42.6927 32.9708 42.899 30.388 45.6378 29.4172C48.3766 28.4464 52.8529 29.4466 53.8247 30.388C54.2878 30.8366 54.6171 31.4655 54.9242 32.0519C55.2617 32.6963 55.5723 33.2894 56.004 33.5358C56.6637 33.9124 57.8299 33.9477 58.6544 33.5358L68.1372 27.9757C67.8988 27.842 67.6411 27.6957 67.3684 27.5395C65.885 26.6899 63.9587 25.5488 62.2899 24.5603C60.4634 23.4783 58.9455 22.5791 58.6544 22.4449C58.2716 22.2684 56.2396 22.2978 55.1794 23.0039C54.6483 23.3576 54.4794 23.8441 54.2912 24.3859C53.9902 24.886 53.8247 24.8962 53.2946 25.2493C51.9095 26.1717 46.2562 26.3672 44.1064 24.8962C41.9566 23.4253 43.4453 22.4449 44.1064 21.4741C44.9899 20.6504 46.4624 20.3268 48.2882 20.2679C50.0156 20.2123 50.5305 19.6563 50.9551 19.198C50.9793 19.1718 51.0032 19.146 51.027 19.1206C51.3804 18.744 51.1743 18.1988 51.027 17.9733L41.3971 12.5308L31.9438 17.9733C31.3548 18.238 30.7953 18.238 30.0885 18.238C29.1378 18.238 27.9681 17.4437 27.762 17.1495C27.7264 17.0988 27.6848 16.9879 27.6271 16.8341C27.3499 16.0954 26.702 14.369 24.5814 13.5898C22.0193 12.6484 18.4697 13.4473 17.1307 14.5312C15.4226 15.9139 15.6288 17.5614 16.6006 18.7676C17.2487 19.5719 19.5731 19.9707 21.3643 20.278C22.2591 20.4315 23.0208 20.5622 23.374 20.7092C24.2221 21.0622 24.3753 22.2096 24.1397 22.4449L14.0974 28.0051L23.7568 33.5358C23.9728 33.5358 24.2796 34.036 24.1397 34.5949C23.9276 35.4422 21.5579 35.8305 20.3996 35.9188C19.2413 36.007 17.166 36.7425 16.6006 37.4486C15.8938 38.3311 15.0398 39.8903 17.6019 41.7143C20.164 43.5383 24.4447 43.2904 26.7901 41.3024C27.259 40.905 27.5839 40.2953 27.9005 39.7013C28.2401 39.0641 28.57 38.4449 29.0577 38.1252C29.8116 37.631 31.0309 37.7133 31.9438 38.1252ZM24.0357 32.8139C24.2314 32.8756 24.376 32.9911 24.4627 33.0758C24.603 33.2128 24.7081 33.3794 24.7821 33.5467C24.9311 33.8837 24.9972 34.3223 24.8825 34.7804C24.7527 35.2991 24.3373 35.6199 24.0137 35.808C23.6639 36.0112 23.2419 36.1629 22.8313 36.2779C22.0044 36.5097 21.0693 36.6349 20.4578 36.6814C19.9768 36.7181 19.2443 36.8992 18.5535 37.1656C18.2134 37.2967 17.9032 37.4411 17.6546 37.5854C17.3929 37.7373 17.2525 37.859 17.1985 37.9264C16.8708 38.3356 16.6296 38.7635 16.6409 39.2091C16.651 39.6084 16.8758 40.2581 18.0463 41.0914C19.1565 41.8818 20.6863 42.25 22.2398 42.1739C23.7937 42.0977 25.2773 41.5816 26.2947 40.7192C26.6452 40.4221 26.9084 39.9345 27.2593 39.2768C27.2662 39.2637 27.2733 39.2505 27.2804 39.2372C27.5805 38.6743 27.9865 37.9126 28.6376 37.4857C29.1836 37.1278 29.8446 37.0084 30.4565 37.0207C31.0751 37.0331 31.7099 37.1804 32.2589 37.4281L32.3277 37.4634L41.4006 42.7151L50.3559 37.6266C50.3589 37.6016 50.3613 37.5756 50.363 37.5488C50.3726 37.3948 50.3527 37.2867 50.3273 37.2297C50.2057 36.9563 49.994 36.7527 49.517 36.6733C49.2698 36.6321 48.8165 36.5938 48.2473 36.5457C48.0933 36.5327 47.9309 36.519 47.7618 36.5043C47.0049 36.4385 46.1408 36.3549 45.4912 36.2282C44.1326 35.9634 42.7956 35.2061 42.2216 33.83C42.093 33.5216 42.0712 33.1094 42.1043 32.7249C42.14 32.3103 42.2483 31.8228 42.4654 31.3238C42.9063 30.3106 43.7937 29.2593 45.3817 28.6963C46.9226 28.1501 48.8717 28.1745 50.5118 28.4298C51.3427 28.5591 52.1255 28.7525 52.7753 28.9813C53.3962 29.2 53.9905 29.4831 54.3578 29.8389C54.9131 30.3768 55.2955 31.1091 55.5891 31.6713C55.6091 31.7095 55.6286 31.7469 55.6478 31.7834C55.8103 32.0932 55.9463 32.3447 56.084 32.5456C56.2241 32.75 56.324 32.8375 56.3839 32.8717C56.5692 32.9775 56.8874 33.0631 57.2745 33.0666C57.6464 33.0701 58.0107 32.9969 58.2913 32.8619L66.6084 27.9851C65.2479 27.2007 63.5966 26.2235 62.1244 25.3515L61.9012 25.2193C61.0241 24.6997 60.2202 24.2235 59.5889 23.8537C58.928 23.4666 58.5011 23.2231 58.3595 23.152C58.351 23.1502 58.3382 23.1478 58.3205 23.145C58.262 23.1359 58.1769 23.1274 58.0667 23.1227C57.8469 23.1134 57.5621 23.1209 57.2524 23.154C56.6069 23.223 55.9808 23.3895 55.6041 23.6403C55.3137 23.8337 55.2264 23.7937 55.0363 24.5314L54.8668 24.828C54.4431 25.3364 54.6126 25.2941 53.85 25.8025C53.1742 26.1504 52.5546 26.4991 51.7883 26.6377C50.9755 26.7846 50.0124 26.8442 49.0344 26.8193C48.055 26.7943 47.0372 26.6841 46.1139 26.4802C45.2031 26.279 44.3271 25.9743 43.6737 25.5273C43.0403 25.0939 42.6068 24.587 42.3691 24.0208C42.1307 23.4529 42.1043 23.0039 42.3691 22.4449C42.9284 21.383 43.6737 20.8769 43.6737 20.8769C44.7767 19.8486 46.4139 19.563 48.2636 19.5034C49.0928 19.4767 49.5402 19.3256 49.8074 19.1786C50.0523 19.044 50.1922 18.8938 50.3947 18.6764C50.4147 18.655 50.4352 18.6329 50.4565 18.6102C50.4565 18.6038 50.4562 18.5947 50.4547 18.5827C50.4525 18.5644 50.4482 18.5436 50.4419 18.5214L41.4006 13.4116L32.3261 18.636L32.258 18.6708C31.5178 19.0035 30.8128 19.0032 30.1465 19.0029C30.1271 19.0029 30.1078 19.0029 30.0885 19.0029C29.428 19.0029 28.7653 18.7373 28.2827 18.4774C28.0314 18.342 27.8031 18.1943 27.6172 18.054C27.4512 17.9287 27.2584 17.7647 27.1347 17.5882C27.0486 17.4652 26.9887 17.3091 26.9605 17.2356C26.9591 17.2319 26.9578 17.2285 26.9565 17.2252C26.9377 17.1764 26.9217 17.1337 26.9056 17.0906C26.8822 17.0282 26.8586 16.965 26.8256 16.8811C26.7265 16.629 26.5942 16.3262 26.4015 16.0107C26.0212 15.3879 25.4016 14.7062 24.3171 14.3077C23.1961 13.8958 21.809 13.8521 20.5172 14.0565C19.2098 14.2633 18.1363 14.7017 17.6128 15.1255C16.8931 15.7081 16.6517 16.2775 16.6252 16.7576C16.5977 17.2571 16.7962 17.7904 17.1971 18.288C17.2919 18.4056 17.5817 18.594 18.1675 18.794C18.7147 18.9808 19.3905 19.1366 20.1003 19.2744C20.573 19.3662 21.0386 19.446 21.4818 19.522C21.7075 19.5608 21.9275 19.5985 22.1395 19.6363C22.7208 19.7399 23.3093 19.8537 23.6685 20.0032C24.3614 20.2916 24.7328 20.8868 24.8928 21.3892C24.9741 21.6441 25.0131 21.909 25.0038 22.1529C24.9965 22.3479 24.9524 22.7148 24.6811 22.9858L24.5109 23.1139L15.6567 28.0163L24.0357 32.8139Z"
                fill="#170D1E" />
            <path id="Vector 3 (Stroke)" fill-rule="evenodd" clip-rule="evenodd"
                d="M5.99486 33.3347C6.0495 33.6301 5.86427 33.9158 5.58115 33.9728L0.621135 34.9716C0.338008 35.0286 0.0641943 34.8353 0.00955567 34.5399C-0.045083 34.2445 0.140144 33.9588 0.423271 33.9018L5.38328 32.903C5.66641 32.846 5.94022 33.0393 5.99486 33.3347Z"
                fill="#170D1E" />
            <path id="Vector 4 (Stroke)" fill-rule="evenodd" clip-rule="evenodd"
                d="M7.32363 20.9492C7.18457 21.206 6.86362 21.3015 6.60676 21.1625L3.79139 19.6383C3.53453 19.4993 3.43903 19.1783 3.57809 18.9214C3.71715 18.6646 4.0381 18.5691 4.29496 18.7081L7.11033 20.2323C7.36719 20.3714 7.46269 20.6923 7.32363 20.9492Z"
                fill="#170D1E" />
            <path id="Vector 5 (Stroke)" fill-rule="evenodd" clip-rule="evenodd"
                d="M33.7371 4.37717C33.4451 4.37202 33.2125 4.13109 33.2177 3.83905L33.2742 0.638084C33.2793 0.346044 33.5203 0.11348 33.8123 0.118638C34.1044 0.123795 34.3369 0.364722 34.3318 0.656762L34.2752 3.85773C34.2701 4.14977 34.0291 4.38233 33.7371 4.37717Z"
                fill="#170D1E" />
            <path id="Vector 6 (Stroke)" fill-rule="evenodd" clip-rule="evenodd"
                d="M55.8755 12.8474C55.7104 12.6064 55.772 12.2772 56.013 12.1122L60.7274 8.88377C60.9684 8.71874 61.2975 8.78032 61.4626 9.02131C61.6276 9.2623 61.566 9.59145 61.325 9.75649L56.6106 12.9849C56.3697 13.15 56.0405 13.0884 55.8755 12.8474Z"
                fill="#170D1E" />
            <path id="Vector 7 (Stroke)" fill-rule="evenodd" clip-rule="evenodd"
                d="M59.404 43.8928C59.5617 43.647 59.8889 43.5756 60.1347 43.7334L64.9436 46.8194C65.1894 46.9771 65.2608 47.3043 65.103 47.5501C64.9453 47.7959 64.6181 47.8673 64.3723 47.7096L59.5634 44.6236C59.3176 44.4658 59.2462 44.1387 59.404 43.8928Z"
                fill="#170D1E" />
            <path id="Vector 8 (Stroke)" fill-rule="evenodd" clip-rule="evenodd"
                d="M45.4106 54.2818C45.6984 54.2318 45.9722 54.4245 46.0222 54.7123L47.001 60.3417C47.051 60.6295 46.8583 60.9033 46.5705 60.9534C46.2828 61.0034 46.0089 60.8107 45.9589 60.5229L44.9801 54.8935C44.9301 54.6057 45.1228 54.3319 45.4106 54.2818Z"
                fill="#170D1E" />
        </g>
    </g>
</svg>